<svg width="72" height="72" viewBox="0 0 72 72" fill="none" xmlns="http://www.w3.org/2000/svg">
<g clip-path="url(#clip0_4044_21698)">
<mask id="mask0_4044_21698" style="mask-type:luminance" maskUnits="userSpaceOnUse" x="0" y="0" width="72" height="72">
<path d="M72 0H0V72H72V0Z" fill="white"/>
</mask>
<g mask="url(#mask0_4044_21698)">
<mask id="mask1_4044_21698" style="mask-type:luminance" maskUnits="userSpaceOnUse" x="-1" y="-1" width="74" height="74">
<path d="M-0.25 -0.25H72.25V72.25H-0.25V-0.25Z" fill="white"/>
</mask>
<g mask="url(#mask1_4044_21698)">
<path d="M49.6597 -0.25C47.1663 -0.215201 44.6867 1.14142 43.5155 3.84248L28.4166 38.6651L28.4655 38.6663C28.2466 39.0956 28.0396 39.5344 27.8453 39.9826C22.7695 51.6891 28.1678 65.2833 39.903 70.3461C51.6377 75.4088 65.2656 70.0228 70.3416 58.3164C73.2559 51.5952 72.7175 44.2519 69.5095 38.2582L56.0983 4.06418C54.9875 1.23175 52.4318 -0.214622 49.855 -0.25H49.6597Z" fill="url(#paint0_linear_4044_21698)"/>
<path d="M15.861 8.81177H-0.25V63.1868H15.861V8.81177Z" fill="url(#paint1_linear_4044_21698)"/>
<path d="M-0.250122 8.81177V63.1868H4.00766V51.5099H7.49447C8.68318 51.5099 9.647 50.5822 9.647 49.4379C9.647 48.2935 8.68318 47.3658 7.49447 47.3658H4.00766V38.8281H10.6877C11.8765 38.8281 12.8402 37.9004 12.8402 36.756C12.8402 35.6117 11.8765 34.6841 10.6877 34.6841H4.00766V26.1445H7.49447C8.68318 26.1445 9.647 25.2168 9.647 24.0726C9.647 22.9281 8.68318 22.0005 7.49447 22.0005H4.00766V8.81177H-0.250122Z" fill="url(#paint2_linear_4044_21698)"/>
</g>
</g>
</g>
<defs>
<linearGradient id="paint0_linear_4044_21698" x1="72.2253" y1="65.1021" x2="29.396" y2="17.0755" gradientUnits="userSpaceOnUse">
<stop stop-color="#1493DF"/>
<stop offset="0.5" stop-color="#28AFEA"/>
<stop offset="1" stop-color="#3CCBF4"/>
</linearGradient>
<linearGradient id="paint1_linear_4044_21698" x1="1.20029" y1="36.7495" x2="22.1007" y2="36.6529" gradientUnits="userSpaceOnUse">
<stop stop-color="#28AEEA"/>
<stop offset="0.5" stop-color="#32BCEF"/>
<stop offset="1" stop-color="#3CCBF4"/>
</linearGradient>
<linearGradient id="paint2_linear_4044_21698" x1="-5.10023" y1="35.9993" x2="12.5759" y2="35.9993" gradientUnits="userSpaceOnUse">
<stop stop-color="#184F85"/>
<stop offset="0.5" stop-color="#135F9E"/>
<stop offset="1" stop-color="#0F6EB7"/>
</linearGradient>
<clipPath id="clip0_4044_21698">
<rect width="72" height="72" fill="white"/>
</clipPath>
</defs>
</svg>
